<svg xmlns="http://www.w3.org/2000/svg" style="display: none;">
    <defs>
        <linearGradient id="icon-gradient" x1="0%" y1="0%" x2="100%" y2="0%">
            <stop offset="0%" stop-color="#color-primary-light" />
            <stop offset="100%" stop-color="#color-primary-dark" />
        </linearGradient>
    </defs>

    <symbol id="icon-basic-world" viewBox="0 0 24 24" fill="none" stroke-width="1" stroke-linecap="round" stroke-linejoin="round" class="icon icon-tabler icons-tabler-outline icon-tabler-world">
        <path stroke="none" d="M0 0h24v24H0z" fill="none"/>
        <path d="M3 12a9 9 0 1 0 18 0a9 9 0 0 0 -18 0" />
        <path d="M3.6 9h16.8" />
        <path d="M3.6 15h16.8" />
        <path d="M11.5 3a17 17 0 0 0 0 18" />
        <path d="M12.5 3a17 17 0 0 1 0 18" />
    </symbol>

    <symbol id="icon-compass" viewBox="0 0 24 24"  fill="none"  stroke-width="1"  stroke-linecap="round"  stroke-linejoin="round"  class="icon icon-tabler icons-tabler-outline icon-tabler-compass">
        <path stroke="none" d="M0 0h24v24H0z" fill="none"/><path d="M8 16l2 -6l6 -2l-2 6l-6 2" /><path d="M12 12m-9 0a9 9 0 1 0 18 0a9 9 0 1 0 -18 0" /><path d="M12 3l0 2" /><path d="M12 19l0 2" /><path d="M3 12l2 0" /><path d="M19 12l2 0" />
    </symbol>

    <symbol id="icon-map" viewBox="0 0 24 24"  fill="none"  stroke-width="1"  stroke-linecap="round"  stroke-linejoin="round"  class="icon icon-tabler icons-tabler-outline icon-tabler-map">
        <path stroke="none" d="M0 0h24v24H0z" fill="none"/><path d="M3 7l6 -3l6 3l6 -3v13l-6 3l-6 -3l-6 3v-13" /><path d="M9 4v13" /><path d="M15 7v13" />
    </symbol>

    <svg id="icon-heart" viewBox="0 0 24 24"  fill="none" stroke-width="1"  stroke-linecap="round"  stroke-linejoin="round"  class="icon icon-tabler icons-tabler-outline icon-tabler-heart">
        <path stroke="none" d="M0 0h24v24H0z" fill="none"/><path d="M19.5 12.572l-7.5 7.428l-7.5 -7.428a5 5 0 1 1 7.5 -6.566a5 5 0 1 1 7.5 6.572" />
    </svg>
</svg>
